<svg xmlns="http://www.w3.org/2000/svg" viewBox="0 0 267.19 321.5"><g id="Figuur_Zwart" data-name="Figuur Zwart"><path id="Figuur_Zwart-2" data-name="Figuur Zwart" d="M159.15,130.75c2.13,1.84,3.67,3.37,4.45,4.16a72.36,72.36,0,0,1,5,5.63s1.16,1.52,2.32,3.27C176.48,152.26,185,173.43,186,176h-7c-.93,0-2.14,0-3.55,0-1.92.05-3.44.18-4.06.24A36.86,36.86,0,0,0,163,178a20.85,20.85,0,0,0-9,7c-6,7.65-5.25,16.79-5,19-5-5.33-10-11.67-15-17-4-4-6-7-12-11-1.59-1.06-3.51-.9-5-1H102.46a8.87,8.87,0,0,1-4.57-1.27l-1.41-.84a11.6,11.6,0,0,1-1.23-1.09c-.81-.83-2.13-2.48-3.25-6.8a34.64,34.64,0,0,1-1-6,33.29,33.29,0,0,1,1-12,30.27,30.27,0,0,1,2.45-6s.52-.82,1.17-1.65c2.81-3.6,9.55-8.9,11.2-10.19a3.62,3.62,0,0,1,.38-.26A65.87,65.87,0,0,1,115,125c2.11-.88,4.13-1.59,6-2.17,0,0,.76-.21,1.55-.4A52.89,52.89,0,0,1,139,121a31.68,31.68,0,0,1,8.65,2.1c.13.05.68.28,1.41.62A42.34,42.34,0,0,1,159.15,130.75Z" transform="translate(-54.31 -87)"/></g><g id="Figuur_Blauw" data-name="Figuur Blauw"><path id="Figuur_Blauw-2" data-name="Figuur Blauw" d="M191,142a35.36,35.36,0,0,1,9.85-9.9c4.08-2.8,7.6-4.24,12.42-6.17,0,0,12.36-4.92,18.73-4.93.59,0,1.26,0,2.65,0,3.65,0,5.21-.3,8.54-.07.36,0,.54,0,.81.06a24.36,24.36,0,0,1,6.43,1.75A45,45,0,0,1,261,128a41.62,41.62,0,0,1,6.51,5.49c.33.33.67.65,1,.95A36.2,36.2,0,0,1,276,143a31.38,31.38,0,0,1,4,9,30.59,30.59,0,0,1,1,8v3.5a24.72,24.72,0,0,1-.51,3.65c-.94,4.37-1.89,7.68-3.49,9.85-2,.18-3,0-6,0s-4.14-.74-7-1H250.74a6.78,6.78,0,0,0-1.73.22,13.66,13.66,0,0,0-4,1.78,13.83,13.83,0,0,0-4,4,29.07,29.07,0,0,0-7,17q-1,7.5-2,15c-.39-4.94-1-10.3-2-16-.12-.71-.29-2-.66-3.61A33.37,33.37,0,0,0,227,187a18,18,0,0,0-7-7,27.14,27.14,0,0,0-16-4H186c.14-4.72.08-8.46,0-11a109,109,0,0,1,.72-12.8,18.93,18.93,0,0,1,.28-1.95C187.69,146.89,189.21,144.62,191,142Z" transform="translate(-54.31 -87)" style="fill:#0a009e"/></g><g id="Figuur_L.Roze" data-name="Figuur L.Roze"><path id="Figuur_L.Roze-2" data-name="Figuur L.Roze" d="M230,198c-.12-.71-.29-2-.66-3.61A33.37,33.37,0,0,0,227,187a18,18,0,0,0-7-7,27.14,27.14,0,0,0-16-4H179c-.93,0-2.14,0-3.55,0-1.92.05-3.44.18-4.06.24A36.86,36.86,0,0,0,163,178a20.85,20.85,0,0,0-9,7c-6,7.65-5.25,16.79-5,19,1,1,11.33,11.53,10,10l14,14c10,10,6,7,16,18,6-6,6.6-7.94,12-9h31V214.44q0-.44,0-.87C231.57,208.75,231,203.53,230,198Z" transform="translate(-54.31 -87)" style="fill:#e66cce"/></g><g id="Figuur_Rood" data-name="Figuur Rood"><path id="Figuur_Rood-2" data-name="Figuur Rood" d="M263,176c-1.42,0-2.81,0-4.18,0h-8.08a5.91,5.91,0,0,0-1.73.22,13.66,13.66,0,0,0-4,1.78,13.83,13.83,0,0,0-4,4,29.07,29.07,0,0,0-7,17q-1,7.5-2,15l0-.35c0,.26,0,.52,0,.79V237h7.58c13.51.33,19.55-5.07,21.42-7,3.26-3.36,5.17-8.57,9-19,1.25-3.4,2.26-6.42,3-8.89a36.36,36.36,0,0,0,1.37-6.1L277,177A128.16,128.16,0,0,0,263,176Z" transform="translate(-54.31 -87)" style="fill:#e60100"/></g><g id="Figuur_Beige" data-name="Figuur Beige"><path id="Figuur_Beige-2" data-name="Figuur Beige" d="M232,237H201c-5.4,1.06-6,3-12,9,3.64,3.58,4.12,6.29,4,8,0,7-8,9-18,18-1.88,1.69-5,7.93-5,15s4,10,9,18c3.89,6.22,2,16,2,34,0,10-1,13.68,1,20a37,37,0,0,0,3.74,8.21,19.59,19.59,0,0,0,12,8.89,30,30,0,0,0,7.28.9,30.32,30.32,0,0,0,10.28-1.81,14,14,0,0,0,7.07-5.64A66.47,66.47,0,0,0,230,353c2-11,2.25-16.26,2-42-.09-9.67,0-19.33,0-29-.05-16.3,0-29.49,0-38Z" transform="translate(-54.31 -87)" style="fill:#f5e0c4"/></g><g id="Figuur_Geel" data-name="Figuur Geel"><path id="Figuur_Geel-2" data-name="Figuur Geel" d="M179,305c-5-8-9-11-9-18s3.12-13.31,5-15c10-9,18-11,18-18,.12-1.71-.36-4.42-4-8-10-11-6-8-16-18l-14-14c1.33,1.53-9-9-10-10H120.45A29.46,29.46,0,0,0,91,233.45V324h75.28a8.37,8.37,0,0,1,4.37,1.19A31.85,31.85,0,0,1,181,337C182,320,182.74,311,179,305Z" transform="translate(-54.31 -87)" style="fill:#c37702"/></g><g id="Figuur_L.geel" data-name="Figuur L.geel"><path id="Figuur_L.Geel-2" data-name="Figuur L.Geel" d="M165,282c.61,8.57-6.18,14.79-8,16-9,6-17.44,6.28-24,6-5.22-.22-17-2-25-9-2.51-2.2-5.21-6.66-6-13-1-8,5-14,7-15,7.21-3.61,12-4,23-4s16,0,24,5C158.14,269.34,164.44,274.23,165,282Z" transform="translate(-54.31 -87)" style="fill:#fbbc00"/></g><g id="Figuur_Groen" data-name="Figuur Groen"><path id="Figuur_Groen-2" data-name="Figuur Groen" d="M277,177l-2.59,19a36.36,36.36,0,0,1-1.37,6.1c-.78,2.47-1.79,5.49-3,8.89-3.83,10.43-5.74,15.64-9,19-1.87,1.93-7.91,7.33-21.42,7H232v31c0,1.09,1.92-3,6-5a17.66,17.66,0,0,1,8-2,14,14,0,0,1,13.73,8.7c.12.29.21.54.27.71v71.43q0,.65.06,1.29s.05.63.17,1.27C262,354.44,268,364,268,364c4.13,6.57,6,9,11,13a12.37,12.37,0,0,0,3,2v0h9V177Z" transform="translate(-54.31 -87)" style="fill:#008b27"/></g><g id="Figuur_Roze" data-name="Figuur Roze"><path id="Figuur_Roze-2" data-name="Figuur Roze" d="M150,368H121.55A30.55,30.55,0,0,1,91,337.45V324h70a48.11,48.11,0,0,0-7.11,5.85,14.13,14.13,0,0,0-3.89,9.82Z" transform="translate(-54.31 -87)" style="fill:#b1014b"/></g><g id="Figuur_Bruin" data-name="Figuur Bruin"><path id="Figuur_Bruin-2" data-name="Figuur Bruin" d="M279,377c-5-4-6.87-6.43-11-13,0,0-6-9.56-7.77-19.6-.12-.64-.17-1.27-.17-1.27q-.06-.64-.06-1.29V270.41c-.06-.17-.15-.42-.27-.71A14,14,0,0,0,246,261a17.81,17.81,0,0,0-8,2,13.37,13.37,0,0,0-6,5v43c.25,25.74,0,31-2,42a66.47,66.47,0,0,1-7.65,16.55,14,14,0,0,1-7.07,5.64A30.32,30.32,0,0,1,205,377a30,30,0,0,1-7.28-.9,19.59,19.59,0,0,1-12-8.89A37,37,0,0,1,182,359a26.81,26.81,0,0,1-1-4.45V337c-2.4-4.77-6.68-9.54-10.35-11.79a8.37,8.37,0,0,0-4.37-1.19H161a48.11,48.11,0,0,0-7.11,5.85,14.13,14.13,0,0,0-3.89,9.82V368H121.55A30.55,30.55,0,0,1,91,337.45V324H83v55H282.23A16,16,0,0,1,279,377Z" transform="translate(-54.31 -87)" style="fill:#230d03"/></g><g id="Figuur_L.Blauw" data-name="Figuur L.Blauw"><path id="Figuur_L.Blauw-2" data-name="Figuur L.Blauw" d="M255,263a14.83,14.83,0,0,0-9-3,16.77,16.77,0,0,0-11,4c-1.7,1.5-2.83,2.49-3,4-.48,4.24,6.87,9.83,14,10,7,.16,11.81-4.9,13.46-6.9a1.57,1.57,0,0,0,.27-1.53A14.58,14.58,0,0,0,255,263Z" transform="translate(-54.31 -87)" style="fill:#05a7e1"/></g><g id="Figuur_Grijs" data-name="Figuur Grijs"><path id="Figuur_Grijs-2" data-name="Figuur Grijs" d="M83,117V324h8V233.45A29.46,29.46,0,0,1,120.45,204H149c-5-5.33-10-11.67-15-17-4-4-6-7-12-11-1.59-1.06-3.51-.9-5-1H102.46a8.87,8.87,0,0,1-4.57-1.27l-1.41-.84a8.16,8.16,0,0,1-1.23-1.09A8,8,0,0,1,94,170a26.69,26.69,0,0,1-2-5,24.31,24.31,0,0,1-1-6,38.33,38.33,0,0,1,1-12,30.27,30.27,0,0,1,2.45-6s.52-.82,1.17-1.65c2.81-3.6,9.55-8.9,11.2-10.19a3.62,3.62,0,0,1,.38-.26A65.87,65.87,0,0,1,115,125c2.11-.88,4.13-1.59,6-2.17,0,0,.76-.21,1.56-.4A56.37,56.37,0,0,1,135,121c3.86.06,7.91.15,12.65,2.1.63.26,1.09.47,1.41.62a60.55,60.55,0,0,1,10.09,7,72.25,72.25,0,0,1,9.44,9.79s1.16,1.52,2.32,3.27C176.48,152.26,185,173.43,186,176c.14-4.72.08-8.46,0-11a109,109,0,0,1,.72-12.8,18.93,18.93,0,0,1,.28-1.95c.69-3.36,2.21-5.63,4-8.25a35.36,35.36,0,0,1,9.85-9.9c4.08-2.8,7.6-4.24,12.42-6.17,0,0,12.36-4.92,18.73-4.93.59,0,1.26,0,2.65,0,3.65,0,5.21-.3,8.54-.07.36,0,.54,0,.81.06a24.36,24.36,0,0,1,6.43,1.75A45,45,0,0,1,261,128a41.62,41.62,0,0,1,6.51,5.49c.33.33.67.65,1,.95A36.2,36.2,0,0,1,276,143a31.38,31.38,0,0,1,4,9,30.59,30.59,0,0,1,1,8v3.5a24.72,24.72,0,0,1-.51,3.65c-.94,4.37-1.89,7.68-3.49,9.85h14V117Z" transform="translate(-54.31 -87)" style="fill:#9a9094"/></g><g id="S_Stephen" data-name="S Stephen"><path id="S2_Stephen" data-name="S2 Stephen" d="M83,95V87a15,15,0,0,0,0,30v-8a7,7,0,0,1,0-14Z" transform="translate(-54.31 -87)" style="fill:#f2f2f2"/><path id="S1_Stephen" data-name="S1 Stephen" d="M83,123v8a15,15,0,0,0,0-30v8a7,7,0,0,1,0,14Z" transform="translate(-54.31 -87)" style="fill:#f2f2f2"/></g><g id="T_Stephen" data-name="T Stephen"><path id="T_Stephen-2" data-name="T Stephen" d="M113,117a7,7,0,0,0,7,7v8a16,16,0,0,1-15-16V95h7.06a8,8,0,0,0,7.94,7v8A7,7,0,0,0,113,117Z" transform="translate(-54.31 -87)" style="fill:#f2f2f2"/></g><g id="E_Stephen" data-name="E Stephen"><path id="E2_Stephen" data-name="E2 Stephen" d="M142,102c-19.62.09-19.61,29.91,0,30v-8c-9.08.14-9.08-14.14,0-14a7,7,0,0,1,7,7h8A15,15,0,0,0,142,102Z" transform="translate(-54.31 -87)" style="fill:#f2f2f2"/><rect id="E1_Stephen" data-name="E1 Stephen" x="87.69" y="30" width="7" height="7" style="fill:#f2f2f2"/></g><g id="P_Stephen" data-name="P Stephen"><path id="P_Stephen-2" data-name="P Stephen" d="M179,102a15,15,0,0,0-15,15v30h8v-7a8.3,8.3,0,0,1,2-6,7.38,7.38,0,0,1,3-2c3-1-7.82-2.9-10.15-6.22A15,15,0,1,0,179,102Zm0,22a7,7,0,1,1,7-7A7,7,0,0,1,179,124Z" transform="translate(-54.31 -87)" style="fill:#f2f2f2"/></g><g id="H_Stephen" data-name="H Stephen"><path id="H2_Stephen" data-name="H2 Stephen" d="M201,109v8c19.62-.09,19.61-29.91,0-30v8C210.09,94.86,210.08,109.14,201,109Z" transform="translate(-54.31 -87)" style="fill:#f2f2f2"/><path id="H1_Stephen" data-name="H1 Stephen" d="M231,117v15h-8c.14-9.09-14.14-9.08-14,0h-8V117Z" transform="translate(-54.31 -87)" style="fill:#f2f2f2"/></g><g id="E_Stephen_2" data-name="E Stephen 2"><path id="E2_Stephen_2" data-name="E2 Stephen 2" d="M253,102a15,15,0,0,0,0,30v-8a7,7,0,1,1,7-7h8A15,15,0,0,0,253,102Z" transform="translate(-54.31 -87)" style="fill:#f2f2f2"/><rect id="E1_Stephen_2" data-name="E1 Stephen 2" x="198.69" y="30" width="7" height="7" style="fill:#f2f2f2"/></g><g id="N_Stephen" data-name="N Stephen"><path id="N_Stephen-2" data-name="N Stephen" d="M305,117v15h-8a7,7,0,0,0-14,0h-8V117Z" transform="translate(-54.31 -87)" style="fill:#f2f2f2"/></g><g id="O_Ormandy" data-name="O Ormandy"><path id="O2_Ormandy" data-name="O2 Ormandy" d="M76,152c-28.92.49-28.91,43.51,0,44C104.92,195.51,104.91,152.49,76,152Zm0,37c-19.62-.09-19.61-29.91,0-30C95.62,159.09,95.61,188.91,76,189Z" transform="translate(-54.31 -87)" style="fill:#f2f2f2"/><path id="O1_Ormandy" data-name="O1 Ormandy" d="M83,174c.13,9.08-14.13,9.08-14,0C68.87,164.92,83.13,164.92,83,174Z" transform="translate(-54.31 -87)" style="fill:#f2f2f2"/></g><g id="R_Ormandy" data-name="R Ormandy"><path id="R_Ormandy-2" data-name="R Ormandy" d="M120,174v-7H105v29h7V181a7,7,0,0,1,7-7Z" transform="translate(-54.31 -87)" style="fill:#f2f2f2"/></g><g id="M_Ormandy" data-name="M Ormandy"><path id="M2_Ormandy" data-name="M2 Ormandy" d="M149,181v15h-8a7,7,0,0,0-14,0h-8a15,15,0,0,1,15-15Z" transform="translate(-54.31 -87)" style="fill:#f2f2f2"/><path id="M1_Ormandy" data-name="M1 Ormandy" d="M178,196h-8a7,7,0,0,0-14,0h-8V181h15A15,15,0,0,1,178,196Z" transform="translate(-54.31 -87)" style="fill:#f2f2f2"/></g><g id="A_Ormandy" data-name="A Ormandy"><path id="A_Ormandy-2" data-name="A Ormandy" d="M203,167v2.52a14,14,0,1,0,0,23V196h7V167Zm-8,21a7,7,0,1,1,7-7A7,7,0,0,1,195,188Z" transform="translate(-54.31 -87)" style="fill:#f2f2f2"/></g><g id="N_Ormandy" data-name="N Ormandy"><path id="N_Ormandy-2" data-name="N Ormandy" d="M247,181v15h-8a7,7,0,0,0-14,0h-8V181Z" transform="translate(-54.31 -87)" style="fill:#f2f2f2"/></g><g id="D_Ormandy" data-name="D Ormandy"><path id="D_Ormandy-2" data-name="D Ormandy" d="M284,151.91v-8A15,15,0,0,0,271.38,167H254v29h30V165.91a7,7,0,0,1,0-14ZM269,188a7,7,0,1,1,7-7A7,7,0,0,1,269,188Z" transform="translate(-54.31 -87)" style="fill:#f2f2f2"/></g><g id="Y_Ormandy" data-name="Y Ormandy"><path id="Y2_Ormandy" data-name="Y2 Ormandy" d="M299.5,181h-8a15,15,0,0,0,30,0h-8a7,7,0,0,1-14,0Z" transform="translate(-54.31 -87)" style="fill:#f2f2f2"/><path id="Y1_Ormandy" data-name="Y1 Ormandy" d="M299.5,196h-8a15,15,0,0,0,30,0h-8a7,7,0,0,1-14,0Z" transform="translate(-54.31 -87)" style="fill:#f2f2f2"/></g><g id="O_Only" data-name="O Only"><path id="O2_Only" data-name="O2 Only" d="M145,278a22,22,0,1,0,22,22A22,22,0,0,0,145,278Zm0,37a15,15,0,1,1,15-15A15,15,0,0,1,145,315Z" transform="translate(-54.31 -87)" style="fill:#f2f2f2"/><circle id="O1_Only" data-name="O1 Only" cx="90.69" cy="213" r="7" style="fill:#f2f2f2"/></g><g id="N_Only" data-name="N Only"><path id="N_Only-2" data-name="N Only" d="M201,308v15h-8a7,7,0,0,0-14,0h-8V308Z" transform="translate(-54.31 -87)" style="fill:#f2f2f2"/></g><g id="L_Only" data-name="L Only"><rect id="L_Only-2" data-name="L Only" x="153.69" y="191" width="8" height="45" style="fill:#f2f2f2"/></g><g id="Y_Only" data-name="Y Only"><path id="Y2_Only" data-name="Y2 Only" d="M230.68,308h-8a15,15,0,0,0,30,0h-8a7,7,0,0,1-14,0Z" transform="translate(-54.31 -87)" style="fill:#f2f2f2"/><path id="Y1_Only" data-name="Y1 Only" d="M230.68,323h-8a15,15,0,0,0,30,0h-8a7,7,0,0,1-14,0Z" transform="translate(-54.31 -87)" style="fill:#f2f2f2"/></g><g id="D_Dancing" data-name="D Dancing"><rect id="D2_Dancing" data-name="D2 Dancing" x="22.69" y="262" width="14" height="30" style="fill:#f2f2f2"/><path id="D1_Dancing" data-name="D1 Dancing" d="M113,364a22,22,0,0,1-22,22v-7a15,15,0,0,0,0-30v-7A22,22,0,0,1,113,364Z" transform="translate(-54.31 -87)" style="fill:#f2f2f2"/></g><g id="A_Dancing" data-name="A Dancing"><path id="A_Dancing-2" data-name="A Dancing" d="M143,357v2.52a14,14,0,1,0,0,23V386h7V357Zm-8,21a7,7,0,1,1,7-7A7,7,0,0,1,135,378Z" transform="translate(-54.31 -87)" style="fill:#f2f2f2"/></g><g id="N_Dancing" data-name="N Dancing"><path id="N_Dancing-2" data-name="N Dancing" d="M188,371v15h-8a7,7,0,0,0-14,0h-8V371Z" transform="translate(-54.31 -87)" style="fill:#f2f2f2"/></g><g id="C_Dancing" data-name="C Dancing"><path id="C_Dancing-2" data-name="C Dancing" d="M195,356h15v8a7,7,0,0,0,0,14v8H195Z" transform="translate(-54.31 -87)" style="fill:#f2f2f2"/></g><g id="I_Dancing" data-name="I Dancing"><circle id="I2_Dancing" data-name="I2 Dancing" cx="166.69" cy="265" r="4" style="fill:#f2f2f2"/><rect id="I1_Dancing" data-name="I1 Dancing" x="162.69" y="277" width="8" height="22" style="fill:#f2f2f2"/></g><g id="N_Dancing_2" data-name="N Dancing 2"><path id="N_Dancing_2-2" data-name="N Dancing 2" d="M262,371v15h-8a7,7,0,0,0-14,0h-8V371Z" transform="translate(-54.31 -87)" style="fill:#f2f2f2"/></g><g id="G_Dancing" data-name="G Dancing"><path id="G_Dancing-2" data-name="G Dancing" d="M299,370A15,15,0,1,0,284,386a7,7,0,0,1,0,14v8.49h.5a14.93,14.93,0,0,0,11.21-5,13.62,13.62,0,0,0,3.29-9.09V370Zm-8.24,3a7,7,0,1,1,.29-2A6.91,6.91,0,0,1,290.71,373Z" transform="translate(-54.31 -87)" style="fill:#f2f2f2"/></g></svg>